<?xml version="1.0" encoding="UTF-8" standalone="no"?>
<svg width="195px" height="195px" viewBox="0 0 195 195" version="1.1" xmlns="http://www.w3.org/2000/svg" xmlns:xlink="http://www.w3.org/1999/xlink">
    <!-- Generator: Sketch 39.1 (31720) - http://www.bohemiancoding.com/sketch -->
    <title>Group 24</title>
    <desc>Created with Sketch.</desc>
    <defs></defs>
    <g id="Page-1" stroke="none" stroke-width="1" fill="none" fill-rule="evenodd">
        <g id="Desktop-HD" transform="translate(-6923.000000, -849.000000)">
            <g id="Group-24" transform="translate(6923.000000, 849.000000)">
                <polygon id="Fill-158" fill="#5071AA" points="0 194.405714 194.377143 194.405714 194.377143 0 0 0"></polygon>
                <path d="M73.7657143,80.7485714 L83.8171429,80.7485714 L83.8171429,70.9828571 C83.8171429,66.6742857 83.9257143,60.0342857 87.0514286,55.92 C90.3485714,51.56 94.8685714,48.6 102.651429,48.6 C115.325714,48.6 120.662857,50.4057143 120.662857,50.4057143 L118.154286,65.2914286 C118.154286,65.2914286 113.965714,64.0857143 110.057143,64.0857143 C106.148571,64.0857143 102.651429,65.4857143 102.651429,69.3885714 L102.651429,80.7485714 L118.674286,80.7485714 L117.554286,95.2857143 L102.651429,95.2857143 L102.651429,145.805714 L83.8171429,145.805714 L83.8171429,95.2857143 L73.7657143,95.2857143 L73.7657143,80.7485714" id="Fill-277" fill="#FFFFFF"></path>
            </g>
        </g>
    </g>
</svg>