<?xml version="1.0" encoding="UTF-8" standalone="no"?>
<svg width="64px" height="102px" viewBox="0 0 64 102" version="1.1" xmlns="http://www.w3.org/2000/svg" xmlns:xlink="http://www.w3.org/1999/xlink">
    <!-- Generator: Sketch 39.1 (31720) - http://www.bohemiancoding.com/sketch -->
    <title>flag</title>
    <desc>Created with Sketch.</desc>
    <defs>
        <path d="M0,518.829521 L0,590 L3.84705293,590 L3.84705293,534.209205 C8.71839795,532.360812 18.0373732,530.593363 30.7764235,536.14126 C50.0988008,544.556216 61.5528469,536.141259 61.5528469,536.141259 L61.5528469,493.823677 C61.5528469,493.823677 50.1030272,502.42695 30.7764235,493.823677 C11.4498194,485.220404 0,493.823677 0,493.823677 L0,518.829521 L0,518.829521 L0,518.829521 Z M3.84705293,496.131815 L3.84705293,530.130707 C3.84705293,530.130707 15.9821571,525.257926 32.2258776,532.611194 C47.4408031,539.498743 57.7734179,533.920471 57.7734179,533.920471 L57.7734179,499.594256 C57.7734179,499.594256 46.1439723,504.854604 28.9322613,497.286118 C13.1659716,490.353226 3.84705293,496.131815 3.84705293,496.131815 Z" id="path-1"></path>
    </defs>
    <g id="Page-1" stroke="none" stroke-width="1" fill="none" fill-rule="evenodd">
        <g id="Desktop-HD" transform="translate(-5607.000000, -3931.000000)">
            <g id="Group-39" transform="translate(5608.000000, 3442.000000)">
                <g id="flag">
                    <use fill-opacity="0.5" fill="#000000" fill-rule="evenodd" style="mix-blend-mode: darken;" xlink:href="#path-1"></use>
                    <use stroke="#000000" stroke-width="2" xlink:href="#path-1"></use>
                </g>
            </g>
        </g>
    </g>
</svg>