<?xml version="1.0" encoding="UTF-8" standalone="no"?>
<svg width="195px" height="195px" viewBox="0 0 195 195" version="1.1" xmlns="http://www.w3.org/2000/svg" xmlns:xlink="http://www.w3.org/1999/xlink">
    <!-- Generator: Sketch 39.1 (31720) - http://www.bohemiancoding.com/sketch -->
    <title>Group 28</title>
    <desc>Created with Sketch.</desc>
    <defs></defs>
    <g id="Page-1" stroke="none" stroke-width="1" fill="none" fill-rule="evenodd">
        <g id="Desktop-HD" transform="translate(-6923.000000, -1431.000000)">
            <g id="Group-28" transform="translate(6923.000000, 1431.000000)">
                <polygon id="Fill-159" fill="#3E4140" points="0 194.405714 194.371429 194.405714 194.371429 0 0 0"></polygon>
                <path d="M144.045714,90.1028571 L132.325714,90.1028571 L132.325714,78.3828571 L122.897143,78.3828571 L122.897143,90.1028571 L111.182857,90.1028571 L111.182857,99.5371429 L122.897143,99.5371429 L122.897143,111.251429 L132.325714,111.251429 L132.325714,99.5371429 L144.045714,99.5371429 L144.045714,90.1028571 L144.045714,90.1028571 Z M100.251429,104.302857 C97.5314286,102.371429 92.3314286,97.6857143 92.3314286,94.9371429 C92.3314286,91.7085714 93.2571429,90.12 98.1085714,86.32 C103.085714,82.4285714 106.611429,76.96 106.611429,70.6 C106.611429,63.0285714 103.24,55.6514286 96.9085714,53.2114286 L106.451429,53.2114286 L113.188571,48.3485714 L83.0857143,48.3485714 C69.5942857,48.3485714 56.8971429,58.5714286 56.8971429,70.4114286 C56.8971429,82.5142857 66.0971429,92.2857143 79.8228571,92.2857143 C80.7771429,92.2857143 81.7028571,92.2628571 82.6114286,92.2 C81.72,93.9028571 81.08,95.8285714 81.08,97.8171429 C81.08,101.182857 82.8914286,103.914286 85.1771429,106.142857 C83.4514286,106.142857 81.7771429,106.194286 79.9657143,106.194286 C63.2514286,106.194286 50.3828571,116.834286 50.3828571,127.88 C50.3828571,138.748571 64.4857143,145.548571 81.2,145.548571 C100.251429,145.548571 110.777143,134.737143 110.777143,123.862857 C110.777143,115.142857 108.205714,109.92 100.251429,104.302857 L100.251429,104.302857 Z M84.1771429,89.2171429 C76.4228571,88.9828571 69.0514286,80.5371429 67.7142857,70.3542857 C66.3714286,60.1714286 71.5771429,52.3771429 79.3314286,52.6057143 C87.08,52.84 94.4514286,61.0057143 95.7885714,71.1942857 C97.1257143,81.3771429 91.9314286,89.4514286 84.1771429,89.2171429 L84.1771429,89.2171429 Z M81.1371429,140.742857 C69.5828571,140.742857 61.24,133.428571 61.24,124.64 C61.24,116.028571 71.5942857,108.857143 83.1428571,108.988571 C85.84,109.017143 88.3542857,109.451429 90.6342857,110.188571 C96.9028571,114.554286 101.4,117.011429 102.668571,121.982857 C102.908571,122.994286 103.04,124.028571 103.04,125.085714 C103.04,133.874286 97.3828571,140.742857 81.1371429,140.742857 L81.1371429,140.742857 Z" id="Fill-279" fill="#FFFFFF"></path>
            </g>
        </g>
    </g>
</svg>