<?xml version="1.0" encoding="UTF-8" standalone="no"?>
<svg width="195px" height="195px" viewBox="0 0 195 195" version="1.1" xmlns="http://www.w3.org/2000/svg" xmlns:xlink="http://www.w3.org/1999/xlink">
    <!-- Generator: Sketch 39.1 (31720) - http://www.bohemiancoding.com/sketch -->
    <title>Group 25</title>
    <desc>Created with Sketch.</desc>
    <defs></defs>
    <g id="Page-1" stroke="none" stroke-width="1" fill="none" fill-rule="evenodd">
        <g id="Desktop-HD" transform="translate(-7255.000000, -849.000000)">
            <g id="Group-25" transform="translate(7255.000000, 849.000000)">
                <polygon id="Fill-132" fill="#68C6E1" points="0 194.405714 194.377143 194.405714 194.377143 0 0 0"></polygon>
                <path d="M145.948571,71.7371429 C142.371429,73.3314286 138.52,74.4 134.48,74.8857143 C138.605714,72.4171429 141.771429,68.4971429 143.262857,63.84 C139.4,66.1257143 135.131429,67.7828571 130.571429,68.6742857 C126.937143,64.8 121.742857,62.3714286 115.994286,62.3714286 C104.971429,62.3714286 96.0285714,71.32 96.0285714,82.3485714 C96.0285714,83.9142857 96.2,85.4342857 96.5428571,86.8971429 C79.9428571,86.0571429 65.2285714,78.12 55.3714286,66.0171429 C53.6514286,68.9828571 52.6685714,72.4171429 52.6685714,76.0742857 C52.6685714,82.9942857 56.1942857,89.1142857 61.5542857,92.6971429 C58.2857143,92.6 55.2,91.6971429 52.5028571,90.2057143 L52.5028571,90.4514286 C52.5028571,100.131429 59.3885714,108.205714 68.5314286,110.04 C66.8571429,110.508571 65.0914286,110.742857 63.2685714,110.742857 C61.9828571,110.742857 60.7257143,110.622857 59.5085714,110.388571 C62.0514286,118.32 69.4228571,124.097143 78.1657143,124.257143 C71.3314286,129.611429 62.7142857,132.805714 53.36,132.805714 C51.7485714,132.805714 50.1542857,132.714286 48.5942857,132.531429 C57.4342857,138.194286 67.9371429,141.502857 79.2114286,141.502857 C115.954286,141.502857 136.04,111.068571 136.04,84.6628571 C136.04,83.8 136.022857,82.9314286 135.988571,82.08 C139.891429,79.2628571 143.28,75.7485714 145.948571,71.7371429" id="Fill-275" fill="#FFFFFF"></path>
            </g>
        </g>
    </g>
</svg>