<?xml version="1.0" encoding="UTF-8" standalone="no"?>
<svg width="100px" height="100px" viewBox="0 0 100 100" version="1.1" xmlns="http://www.w3.org/2000/svg" xmlns:xlink="http://www.w3.org/1999/xlink">
    <!-- Generator: Sketch 39.1 (31720) - http://www.bohemiancoding.com/sketch -->
    <title>Shape</title>
    <desc>Created with Sketch.</desc>
    <defs></defs>
    <g id="Page-1" stroke="none" stroke-width="1" fill="none" fill-rule="evenodd" fill-opacity="0.5">
        <g id="Desktop-HD" transform="translate(-3493.000000, -1635.000000)" fill="#000000">
            <g id="Group-23" transform="translate(3068.000000, 1597.000000)">
                <path d="M523.309806,57.4331222 L523.220602,57.4331222 C521.505368,57.4472392 521.239319,55.527321 521.209584,54.6359303 L521.209584,40.6943391 C521.209584,39.2059991 520.273717,38 519.121882,38 L488.189771,38 C480.428965,38 477.533726,41.7067329 476.815393,42.8703809 L476.618204,43.223307 L476.616639,43.2293572 L476.004726,44.3103196 L476.003161,44.3103196 C475.181539,45.7643753 474.466337,45.145242 474.122038,44.6692959 L472.951423,42.7876953 L472.372375,41.8882378 C471.398948,40.5713191 468.862093,38 463.833766,38 L430.879683,38 C429.724718,38 428.788851,39.2059991 428.788851,40.6943391 L428.788851,54.4584589 C428.788851,56.8684403 427.77317,57.3524533 427.150302,57.4331222 L426.687064,57.4331222 C426.180006,57.4734566 425,57.8526001 425,60.6497919 L425,126.251705 C425,127.861048 426.012551,129.16385 427.261417,129.16385 L457.337475,129.16385 C466.932455,129.16385 471.114119,133.826508 472.36768,135.61534 L473.082882,136.756804 L473.084447,136.756804 C473.084447,136.756804 475.00313,139.553995 477.025103,136.756804 L477.025103,136.756804 L477.444521,136.123553 L477.444521,136.12557 L477.450781,136.11952 L477.986009,135.312831 C478.001659,135.288631 478.129988,135.103093 478.316223,134.857053 C479.917212,132.850415 483.918902,129.16385 491.743873,129.16385 L522.738583,129.16385 C523.989014,129.16385 525,127.861048 525,126.251705 L525,60.0145249 C525,57.6428611 523.66819,57.4452225 523.309806,57.4331222 L523.309806,57.4331222 Z M516.552161,115.958361 C516.552161,117.25108 515.714889,118.293724 514.672603,118.293724 L489.171023,118.293724 C480.095621,118.293724 476.801308,123.577533 476.801308,123.577533 L476.383455,124.299519 L476.187831,124.648412 L476.186266,124.648412 C475.320824,126.162969 474.048484,124.660512 474.042224,124.652445 L473.455351,123.706603 C473.020282,123.033018 469.686845,118.291707 461.6193,118.291707 L435.327397,118.291707 C434.289806,118.291707 433.450969,117.247046 433.450969,115.956345 L433.450969,46.0527664 C433.450969,44.762065 434.289806,43.7174036 435.327397,43.7174036 L455.739616,43.7174036 C470.92319,43.7174036 472.36142,54.8315523 472.460014,58.0603224 L472.460014,106.675395 C472.460014,110.20869 473.766785,110.872191 474.503897,110.968994 L475.600958,110.968994 C476.352155,110.872191 477.546246,110.297426 477.546246,107.540569 L477.546246,57.4331222 L477.533726,57.4331222 C477.646405,53.3895969 478.870231,43.7153869 488.001972,43.7153869 L514.672603,43.7153869 C515.714889,43.7153869 516.552161,44.7600483 516.552161,46.0507497 L516.552161,115.958361 L516.552161,115.958361 Z" id="Shape"></path>
            </g>
        </g>
    </g>
</svg>