<?xml version="1.0" encoding="UTF-8" standalone="no"?>
<svg width="100px" height="100px" viewBox="0 0 100 100" version="1.1" xmlns="http://www.w3.org/2000/svg" xmlns:xlink="http://www.w3.org/1999/xlink">
    <!-- Generator: Sketch 39.1 (31720) - http://www.bohemiancoding.com/sketch -->
    <title>Group 41</title>
    <desc>Created with Sketch.</desc>
    <defs></defs>
    <g id="Page-1" stroke="none" stroke-width="1" fill="none" fill-rule="evenodd" fill-opacity="0.5">
        <g id="Desktop-HD" transform="translate(-3700.000000, -1635.000000)" fill="#000000">
            <g id="Group-23" transform="translate(3068.000000, 1597.000000)">
                <g id="Exchange-Arrows" transform="translate(632.000000, 38.000000)">
                    <g id="Group-41">
                        <path d="M96.2903226,53.5202492 C94.2734596,51.1803484 91.5366586,49.8655868 88.6827957,49.8655868 C85.8289328,49.8655868 83.0921318,51.1803484 81.0752688,53.5202492 L80.3225806,54.3925234 L77.9569892,61.2461059 L77.9569892,12.4610592 C77.9569892,5.57900623 73.1428468,1.28943424e-14 67.2043011,1.28943424e-14 C61.2657554,1.28943424e-14 56.4516129,5.57900623 56.4516129,12.4610592 L56.4516129,87.2274143 C56.4698138,92.2511613 59.0893862,96.7709053 63.0954706,98.6905583 C67.101555,100.610211 71.7105382,99.5542782 74.7849462,96.0124611 L96.2903226,71.0903427 C100.459393,66.2300629 100.459393,58.380529 96.2903226,53.5202492 L96.2903226,53.5202492 Z" id="Shape"></path>
                        <path d="M24.656517,3.63528309 L3.1511407,28.5574015 C-1.05038028,33.426454 -1.05038023,41.3207477 3.15114081,46.1898001 C7.35266185,51.0588525 14.1646734,51.0588526 18.3661945,46.1898002 L19.3876998,45.0059996 L21.484474,38.0278065 L21.484474,87.2489903 C21.484474,94.1310432 26.2986165,99.7100494 32.2371622,99.7100494 C38.1757079,99.7100494 42.9898504,94.1310432 42.9898504,87.2489903 L42.9898504,12.4826351 C42.9989039,7.44454062 40.3892362,2.89581502 36.3769471,0.956155362 C32.3620774,-0.97935746 27.73648,0.0779899303 24.656517,3.63528309 Z" id="Shape"></path>
                    </g>
                </g>
            </g>
        </g>
    </g>
</svg>