<?xml version="1.0" encoding="UTF-8" standalone="no"?>
<svg width="216px" height="224px" viewBox="0 0 216 224" version="1.1" xmlns="http://www.w3.org/2000/svg" xmlns:xlink="http://www.w3.org/1999/xlink">
    <!-- Generator: Sketch 39.1 (31720) - http://www.bohemiancoding.com/sketch -->
    <title>Group 5</title>
    <desc>Created with Sketch.</desc>
    <defs>
        <linearGradient x1="50%" y1="0%" x2="50%" y2="99.0214445%" id="linearGradient-1">
            <stop stop-color="#000000" stop-opacity="0" offset="0%"></stop>
            <stop stop-color="#000000" stop-opacity="0.02" offset="80%"></stop>
            <stop stop-color="#000000" stop-opacity="0.04" offset="100%"></stop>
        </linearGradient>
        <linearGradient x1="50%" y1="0%" x2="50%" y2="100%" id="linearGradient-2">
            <stop stop-color="#FFFFFF" stop-opacity="0.12" offset="0%"></stop>
            <stop stop-color="#FFFFFF" stop-opacity="0.06" offset="20%"></stop>
            <stop stop-color="#FFFFFF" stop-opacity="0" offset="100%"></stop>
        </linearGradient>
        <path d="M100,200 C155.228475,200 200,155.228475 200,100 C200,44.771525 155.228475,0 100,0 C44.771525,0 0,44.771525 0,100 C0,155.228475 44.771525,200 100,200 Z" id="path-3"></path>
        <filter x="-50%" y="-50%" width="200%" height="200%" filterUnits="objectBoundingBox" id="filter-4">
            <feOffset dx="0" dy="8" in="SourceAlpha" result="shadowOffsetOuter1"></feOffset>
            <feGaussianBlur stdDeviation="4" in="shadowOffsetOuter1" result="shadowBlurOuter1"></feGaussianBlur>
            <feComposite in="shadowBlurOuter1" in2="SourceAlpha" operator="out" result="shadowBlurOuter1"></feComposite>
            <feColorMatrix values="0 0 0 0 0   0 0 0 0 0   0 0 0 0 0  0 0 0 0.24 0" type="matrix" in="shadowBlurOuter1" result="shadowMatrixOuter1"></feColorMatrix>
            <feOffset dx="0" dy="0" in="SourceAlpha" result="shadowOffsetOuter2"></feOffset>
            <feGaussianBlur stdDeviation="4" in="shadowOffsetOuter2" result="shadowBlurOuter2"></feGaussianBlur>
            <feComposite in="shadowBlurOuter2" in2="SourceAlpha" operator="out" result="shadowBlurOuter2"></feComposite>
            <feColorMatrix values="0 0 0 0 0   0 0 0 0 0   0 0 0 0 0  0 0 0 0.12 0" type="matrix" in="shadowBlurOuter2" result="shadowMatrixOuter2"></feColorMatrix>
            <feMerge>
                <feMergeNode in="shadowMatrixOuter1"></feMergeNode>
                <feMergeNode in="shadowMatrixOuter2"></feMergeNode>
            </feMerge>
        </filter>
        <mask id="mask-5" maskContentUnits="userSpaceOnUse" maskUnits="objectBoundingBox" x="0" y="0" width="200" height="200" fill="white">
            <use xlink:href="#path-3"></use>
        </mask>
        <mask id="mask-6" maskContentUnits="userSpaceOnUse" maskUnits="objectBoundingBox" x="0" y="0" width="200" height="200" fill="white">
            <use xlink:href="#path-3"></use>
        </mask>
    </defs>
    <g id="Page-1" stroke="none" stroke-width="1" fill="none" fill-rule="evenodd">
        <g id="Desktop-HD" transform="translate(-3151.000000, -906.000000)">
            <g id="Group-18" transform="translate(3098.000000, 848.000000)">
                <g id="Group-5" transform="translate(61.000000, 66.000000)">
                    <g id="Group-9">
                        <g id="Oval-23">
                            <use fill="black" fill-opacity="1" filter="url(#filter-4)" xlink:href="#path-3"></use>
                            <use stroke="url(#linearGradient-1)" mask="url(#mask-5)" stroke-width="1" fill="#009588" fill-rule="evenodd" xlink:href="#path-3"></use>
                            <use stroke="url(#linearGradient-2)" mask="url(#mask-6)" stroke-width="1" xlink:href="#path-3"></use>
                        </g>
                        <g id="Group-3" transform="translate(38.000000, 48.000000)" fill="#FFFFFF">
                            <g id="1472945209_Circle_Data_Mobile_Network_Internet_Transfer">
                                <path d="M119.4,57.2666667 C116.89909,54.7629728 113.505457,53.3561779 109.966667,53.3561779 C106.427877,53.3561779 103.034243,54.7629728 100.533333,57.2666667 L99.6,58.2 L96.6666667,65.5333333 L96.6666667,13.3333333 C96.6666667,5.96953667 90.69713,1.37969463e-14 83.3333333,1.37969463e-14 C75.9695367,1.37969463e-14 70,5.96953667 70,13.3333333 L70,93.3333333 C70.0225691,98.7087426 73.2708389,103.544869 78.2383836,105.598897 C83.2059282,107.652926 88.9210673,106.523078 92.7333333,102.733333 L119.4,76.0666667 C124.569648,70.8661673 124.569648,62.4671661 119.4,57.2666667 L119.4,57.2666667 Z" id="Shape"></path>
                                <path d="M30.5740811,3.8897529 L3.90741446,30.5564196 C-1.30247154,35.7663057 -1.30247148,44.2132 3.90741461,49.4230861 C9.11730069,54.6329722 17.564195,54.6329722 22.7740811,49.4230862 L24.0407478,48.1564196 L26.6407478,40.6897529 L26.6407478,93.3564196 C26.6407478,100.720216 32.6102845,106.689753 39.9740811,106.689753 C47.3378778,106.689753 53.3074145,100.720216 53.3074145,93.3564196 L53.3074145,13.3564196 C53.3186409,7.96565847 50.0826529,3.09852207 45.1074145,1.02308624 C40.128976,-1.04791248 34.3932352,0.0834492255 30.5740811,3.8897529 Z" id="Shape"></path>
                            </g>
                        </g>
                    </g>
                </g>
            </g>
        </g>
    </g>
</svg>