<?xml version="1.0" encoding="UTF-8" standalone="no"?>
<svg width="195px" height="195px" viewBox="0 0 195 195" version="1.1" xmlns="http://www.w3.org/2000/svg" xmlns:xlink="http://www.w3.org/1999/xlink">
    <!-- Generator: Sketch 39.1 (31720) - http://www.bohemiancoding.com/sketch -->
    <title>Group 27</title>
    <desc>Created with Sketch.</desc>
    <defs></defs>
    <g id="Page-1" stroke="none" stroke-width="1" fill="none" fill-rule="evenodd">
        <g id="Desktop-HD" transform="translate(-7255.000000, -1140.000000)">
            <g id="Group-27" transform="translate(7255.000000, 1140.000000)">
                <polygon id="Fill-142" fill="#575C59" points="0 194.371429 194.377143 194.371429 194.377143 0 0 0"></polygon>
                <path d="M136.251429,126.982857 C136.251429,132.12 132.074286,136.297143 126.937143,136.297143 L67.3142857,136.297143 C62.1771429,136.297143 58,132.12 58,126.982857 L58,87.1942857 L72.5085714,87.1942857 C71.2571429,90.2742857 70.5542857,93.6342857 70.5542857,97.1657143 C70.5542857,111.817143 82.4742857,123.748571 97.1257143,123.748571 C111.777143,123.748571 123.697143,111.817143 123.697143,97.1657143 C123.697143,93.6342857 122.988571,90.2742857 121.742857,87.1942857 L136.251429,87.1942857 L136.251429,126.982857 L136.251429,126.982857 Z M83.2571429,87.1942857 C86.3657143,82.88 91.4171429,80.0571429 97.1257143,80.0571429 C102.834286,80.0571429 107.885714,82.88 110.994286,87.1942857 C113.022857,90.0057143 114.234286,93.44 114.234286,97.1657143 C114.234286,106.6 106.554286,114.274286 97.1257143,114.274286 C87.6971429,114.274286 80.0228571,106.6 80.0228571,97.1657143 C80.0228571,93.44 81.2342857,90.0057143 83.2571429,87.1942857 L83.2571429,87.1942857 Z M132.325714,59.7714286 L134.474286,59.76 L134.474286,76.24 L118.051429,76.2857143 L117.994286,59.8171429 L132.325714,59.7714286 L132.325714,59.7714286 Z M126.937143,48.5657143 L67.3142857,48.5657143 C56.96,48.5657143 48.5314286,56.9885714 48.5314286,67.3485714 L48.5314286,126.982857 C48.5314286,137.342857 56.96,145.771429 67.3142857,145.771429 L126.937143,145.771429 C137.291429,145.771429 145.72,137.342857 145.72,126.982857 L145.72,67.3485714 C145.72,56.9885714 137.291429,48.5657143 126.937143,48.5657143 L126.937143,48.5657143 Z" id="Fill-314" fill="#FFFFFF"></path>
            </g>
        </g>
    </g>
</svg>