<?xml version="1.0" encoding="UTF-8" standalone="no"?>
<svg width="195px" height="195px" viewBox="0 0 195 195" version="1.1" xmlns="http://www.w3.org/2000/svg" xmlns:xlink="http://www.w3.org/1999/xlink">
    <!-- Generator: Sketch 39.1 (31720) - http://www.bohemiancoding.com/sketch -->
    <title>Group 26</title>
    <desc>Created with Sketch.</desc>
    <defs></defs>
    <g id="Page-1" stroke="none" stroke-width="1" fill="none" fill-rule="evenodd">
        <g id="Desktop-HD" transform="translate(-6923.000000, -1140.000000)">
            <g id="Group-26" transform="translate(6923.000000, 1140.000000)">
                <polygon id="Fill-133" fill="#247CB4" points="0 194.371429 194.377143 194.371429 194.377143 0 0 0"></polygon>
                <path d="M145.697143,137.822857 L124.217143,137.822857 L124.217143,106.445714 C124.217143,98.2285714 120.857143,92.6285714 113.468571,92.6285714 C107.817143,92.6285714 104.674286,96.4057143 103.211429,100.057143 C102.662857,101.36 102.748571,103.177143 102.748571,105.011429 L102.748571,137.822857 L81.4685714,137.822857 C81.4685714,137.822857 81.7428571,82.2342857 81.4685714,77.1885714 L102.748571,77.1885714 L102.748571,86.7028571 C104.005714,82.5371429 110.805714,76.6 121.657143,76.6 C135.12,76.6 145.697143,85.32 145.697143,104.108571 L145.697143,137.822857 L145.697143,137.822857 Z M59.9485714,69.5942857 L59.8114286,69.5942857 C52.9542857,69.5942857 48.5085714,64.9657143 48.5085714,59.0971429 C48.5085714,53.1028571 53.0857143,48.5657143 60.08,48.5657143 C67.0685714,48.5657143 71.3657143,53.0914286 71.5028571,59.08 C71.5028571,64.9485714 67.0685714,69.5942857 59.9485714,69.5942857 L59.9485714,69.5942857 Z M50.96,137.822857 L69.9028571,137.822857 L69.9028571,77.1885714 L50.96,77.1885714 L50.96,137.822857 Z" id="Fill-288" fill="#FFFFFF"></path>
            </g>
        </g>
    </g>
</svg>