<?xml version="1.0" encoding="UTF-8" standalone="no"?>
<svg width="195px" height="195px" viewBox="0 0 195 195" version="1.1" xmlns="http://www.w3.org/2000/svg" xmlns:xlink="http://www.w3.org/1999/xlink">
    <!-- Generator: Sketch 39.1 (31720) - http://www.bohemiancoding.com/sketch -->
    <title>Group 29</title>
    <desc>Created with Sketch.</desc>
    <defs></defs>
    <g id="Page-1" stroke="none" stroke-width="1" fill="none" fill-rule="evenodd">
        <g id="Desktop-HD" transform="translate(-7255.000000, -1431.000000)">
            <g id="Group-29" transform="translate(7255.000000, 1431.000000)">
                <polygon id="Fill-136" fill="#268BBF" points="0 194.371429 194.377143 194.371429 194.377143 0 0 0"></polygon>
                <path d="M121.411429,119.84 C119.268571,122.88 116.102857,125.28 111.988571,126.982857 C107.925714,128.674286 103.057143,129.537143 97.5085714,129.537143 C90.8514286,129.537143 85.2685714,128.365714 80.9085714,126.051429 C77.7942857,124.371429 75.2285714,122.097143 73.28,119.274286 C71.3085714,116.44 70.3142857,113.622857 70.3142857,110.897143 C70.3142857,109.205714 70.9657143,107.731429 72.2457143,106.525714 C73.5142857,105.325714 75.1428571,104.725714 77.0857143,104.725714 C78.6742857,104.725714 80.0514286,105.2 81.1657143,106.142857 C82.2342857,107.051429 83.1485714,108.394286 83.8857143,110.114286 C84.7085714,112 85.6,113.588571 86.5428571,114.828571 C87.4571429,116.04 88.7657143,117.051429 90.4342857,117.845714 C92.1142857,118.634286 94.3828571,119.045714 97.1657143,119.045714 C101,119.045714 104.142857,118.222857 106.502857,116.611429 C108.817143,115.04 109.937143,113.142857 109.937143,110.822857 C109.937143,109 109.348571,107.56 108.148571,106.428571 C106.88,105.251429 105.217143,104.337143 103.2,103.697143 C101.091429,103.045714 98.2342857,102.331429 94.6971429,101.588571 C89.88,100.56 85.7942857,99.3428571 82.5485714,97.9542857 C79.2228571,96.5428571 76.5428571,94.5828571 74.5828571,92.1314286 C72.5942857,89.6342857 71.5828571,86.5085714 71.5828571,82.8342857 C71.5828571,79.3371429 72.64,76.1771429 74.7314286,73.4571429 C76.8,70.7542857 79.8285714,68.64 83.7314286,67.2057143 C87.5771429,65.7828571 92.1485714,65.0628571 97.3314286,65.0628571 C101.468571,65.0628571 105.108571,65.5428571 108.148571,66.4914286 C111.205714,67.44 113.777143,68.72 115.8,70.3028571 C117.84,71.9028571 119.36,73.6 120.308571,75.3714286 C121.268571,77.16 121.76,78.9371429 121.76,80.6571429 C121.76,82.3142857 121.12,83.8228571 119.857143,85.1314286 C118.588571,86.4571429 116.982857,87.1257143 115.097143,87.1257143 C113.382857,87.1257143 112.034286,86.7028571 111.108571,85.88 C110.24,85.1085714 109.337143,83.9085714 108.337143,82.1942857 C107.182857,80 105.782857,78.2685714 104.177143,77.0457143 C102.617143,75.8571429 100.017143,75.2628571 96.4342857,75.2628571 C93.12,75.2628571 90.4114286,75.9257143 88.4057143,77.2457143 C86.4742857,78.5085714 85.5314286,79.9657143 85.5314286,81.6914286 C85.5314286,82.7428571 85.8342857,83.6285714 86.4628571,84.3828571 C87.1142857,85.1942857 88.0457143,85.8914286 89.2228571,86.4857143 C90.44,87.0971429 91.6971429,87.5885714 92.9542857,87.9314286 C94.24,88.2914286 96.4,88.8228571 99.3657143,89.5085714 C103.12,90.3085714 106.565714,91.2171429 109.611429,92.1942857 C112.702857,93.1771429 115.365714,94.3885714 117.548571,95.8114286 C119.765714,97.2571429 121.52,99.1085714 122.771429,101.325714 C124.022857,103.56 124.657143,106.302857 124.657143,109.497143 C124.657143,113.314286 123.56,116.794286 121.411429,119.84 L121.411429,119.84 Z M142.92,107.634286 C143.622857,104.422857 143.988571,101.097143 143.988571,97.68 C143.988571,72.08 123.24,51.32 97.6342857,51.32 C94.9371429,51.32 92.2914286,51.5542857 89.7085714,52 C85.5657143,49.3885714 80.6628571,47.8742857 75.4114286,47.8742857 C60.56,47.8742857 48.5257143,59.9085714 48.5257143,74.7657143 C48.5257143,79.7257143 49.8742857,84.3657143 52.2171429,88.3657143 C51.6057143,91.3714286 51.28,94.4914286 51.28,97.68 C51.28,123.291429 72.0342857,144.045714 97.6342857,144.045714 C100.537143,144.045714 103.371429,143.777143 106.125714,143.268571 C109.914286,145.302857 114.234286,146.462857 118.834286,146.462857 C133.68,146.462857 145.714286,134.422857 145.714286,119.577143 C145.714286,115.285714 144.708571,111.234286 142.92,107.634286 L142.92,107.634286 Z" id="Fill-291" fill="#FFFFFF"></path>
            </g>
        </g>
    </g>
</svg>